<svg xmlns="http://www.w3.org/2000/svg"  viewBox="0 0 64 64" width="48px" height="48px"><path d="M32,10c12.15,0,22,9.85,22,22s-9.85,22-22,22c-2.358,0-4.625-0.38-6.754-1.067	c0.691-1.091,2.661-4.565,3.165-6.449c0.261-0.976,1.302-4.967,1.302-4.967c0.681,1.299,2.671,2.399,4.789,2.399	c6.301,0,10.841-5.795,10.841-12.995c0-6.902-5.632-12.067-12.88-12.067c-9.016,0-13.805,6.053-13.805,12.643	c0,3.064,1.631,6.879,4.241,8.094c0.396,0.184,0.608,0.103,0.699-0.279c0.069-0.291,0.422-1.71,0.58-2.369	c0.051-0.211,0.026-0.392-0.145-0.599c-0.863-1.047-1.555-2.972-1.555-4.768c0-4.608,3.489-9.067,9.434-9.067	c5.133,0,8.727,3.498,8.727,8.5c0,5.652-2.854,9.567-6.568,9.567c-2.051,0-3.586-1.696-3.094-3.775	c0.589-2.484,1.73-5.164,1.73-6.956c0-1.605-0.861-2.943-2.643-2.943c-2.097,0-3.78,2.169-3.78,5.074	c0,1.85,0.625,3.102,0.625,3.102s-2.07,8.754-2.45,10.385c-0.359,1.544-0.146,5.87-0.036,7.17C16.012,49.541,10,41.483,10,32	C10,19.85,19.85,10,32,10z"/></svg>